<?xml version="1.0" encoding="UTF-8" standalone="no"?>
<!DOCTYPE svg PUBLIC "-//W3C//DTD SVG 1.1//EN" "http://www.w3.org/Graphics/SVG/1.1/DTD/svg11.dtd">
<svg width="100%" height="100%" viewBox="0 0 1000 1000" version="1.1" xmlns="http://www.w3.org/2000/svg" xmlns:xlink="http://www.w3.org/1999/xlink" xml:space="preserve" xmlns:serif="http://www.serif.com/" style="fill-rule:evenodd;clip-rule:evenodd;stroke-linejoin:round;stroke-miterlimit:2;">
    <g transform="matrix(1,0,0,1,47.8081,0)">
        <g transform="matrix(0.343433,0,0,0.429706,-108.649,-147.842)">
            <path d="M1819.63,491.087C1955.19,480.769 1958.9,463.4 2142.18,469.789C2336.14,476.551 2425.74,589.629 2581.95,695.38C2722.76,790.708 2439.67,1055.47 1986.16,1055.47C1532.65,1055.47 1164.46,935.729 1164.46,788.24C1164.46,640.751 1368.16,525.448 1819.63,491.087Z" style="fill:white;"/>
        </g>
        <g transform="matrix(0.446463,-0.182713,0.0915652,0.223741,-473.486,213.064)">
            <path d="M1382.63,872.153C1441.29,872.153 1544.41,919.744 1588.91,901.362C1662.07,871.138 1660.19,1010.49 1660.19,1081.94C1660.19,1175.97 1543.07,1575.8 1479.41,1379.89C1455.4,1305.99 1351.63,1313.6 1322.85,1313.6C1286.54,1313.6 1245.71,1279.4 1221.64,1261.23C1163.4,1217.25 1121.06,1177.28 1105.07,1081.94C1104.18,1076.59 1105.37,1070.71 1105.95,1065.19C1117.25,957.223 1236.9,872.153 1382.63,872.153Z" style="fill:rgb(41,29,43);"/>
        </g>
        <g transform="matrix(2.74746,0,0,0.343433,-3233.91,-133.485)">
            <path d="M1243.55,1009.26C1244.48,1005.08 1245.79,1012.07 1245.79,1020.62C1245.79,1029.16 1244.92,1036.11 1243.85,1036.11C1242.78,1036.11 1242.46,1031.12 1242.46,1022.56C1242.46,1014.01 1242.53,1013.81 1243.55,1009.26Z" style="fill:rgb(235,235,235);"/>
        </g>
        <g transform="matrix(0.343433,0,0,0.343433,-203.972,-172.057)">
            <path d="M1813.17,757.257C1878.76,744.851 1939.16,740.252 1973.9,877.317C2047.8,1168.97 1936.34,1364.01 1871.27,1364.01C1739.23,1364.01 1746.18,1345.08 1602.34,1270.22C1572.91,1254.9 1543.42,1248.07 1518.46,1238.35C1502.98,1232.31 1489.24,1225.15 1478.35,1214.16C1439.6,1175.02 1480.73,1144.65 1482.04,1086.45C1483.99,999.697 1412.79,1001.51 1472.84,915.61C1531.72,831.377 1715.99,775.638 1813.17,757.257Z" style="fill:rgb(41,29,43);"/>
        </g>
        <g transform="matrix(0.343433,0,0,0.431974,-188.454,-260.311)">
            <path d="M924.337,1141.97C956.4,1141.97 955.32,1181.04 955.32,1226.64C955.32,1272.24 956.4,1282.58 924.337,1282.58C892.274,1282.58 876.571,1260.95 876.571,1215.35C876.571,1169.75 892.274,1141.97 924.337,1141.97Z" style="fill:rgb(41,29,43);"/>
        </g>
        <g transform="matrix(0.343433,0,0,0.343433,-182.69,-148.116)">
            <path d="M1442.28,1162.88C1464.3,1182.88 1452.07,1251.46 1436.87,1297.28C1418.03,1354.05 1384.37,1449.21 1369.61,1474.69C1356.27,1497.72 1302.94,1587.66 1289.21,1610.47C1276.88,1630.96 1396.62,1624.83 1405.98,1614.94C1455.83,1562.25 1410.63,1525.09 1453.99,1467.2C1488.9,1420.59 1541.53,1348.14 1595.45,1327.43C1615.87,1319.6 1640.05,1238.42 1661,1233.38" style="fill:rgb(41,29,43);"/>
        </g>
        <g transform="matrix(0.343433,0,0,0.343433,-182.69,-148.116)">
            <path d="M1635.62,1250.17C1717.95,1310.57 1762.44,1408.71 1749.66,1512.09C1744.61,1552.9 1718.51,1578.35 1700.98,1613.41C1700.71,1613.95 1700.76,1612.97 1700.98,1613.41C1712.66,1636.78 1812.39,1618.66 1818.06,1606.81C1839.03,1562.99 1818.56,1505.52 1817.09,1456.05C1814.54,1370.11 1835.22,1290.02 1848.37,1206.1" style="fill:rgb(41,29,43);"/>
        </g>
        <g transform="matrix(0.343433,0,0,0.343433,71.7998,-140.135)">
            <path d="M1662.36,1267.36C1722.02,1328.76 1762.44,1408.71 1749.66,1512.09C1744.61,1552.9 1718.51,1578.35 1700.98,1613.41C1700.71,1613.95 1700.76,1612.97 1700.98,1613.41C1712.66,1636.78 1812.39,1618.66 1818.06,1606.81C1839.03,1562.99 1818.56,1505.52 1817.09,1456.05C1814.54,1370.11 1835.22,1290.02 1848.37,1206.1" style="fill:rgb(41,29,43);"/>
        </g>
        <g transform="matrix(0.343433,0,0,0.343433,-192.565,-112.193)">
            <path d="M1374.6,730.028C1367.86,719.914 1359.55,710.698 1347.92,706.341C1343.68,704.753 1335.72,713.286 1333.54,715.635C1319.99,730.226 1313.37,746.254 1310.97,763.029C1307.43,787.73 1313.05,814.05 1319.17,839.784" style="fill:rgb(41,29,43);"/>
        </g>
        <g transform="matrix(0.343433,0,0,0.343433,-189.217,-155.209)">
            <path d="M1235.05,938.458C1237.95,919.276 1240.51,898.52 1247.07,880.222C1252.81,864.237 1265.42,840.589 1282.45,834.186C1311.02,823.446 1339.15,858.355 1336.33,884.586C1332.78,917.528 1302.98,937.586 1277.13,953.205" style="fill:rgb(41,29,43);"/>
        </g>
        <g transform="matrix(0.343433,0,0,0.343433,131.654,-86.9316)">
            <path d="M1758.95,837.297C1820.66,811.834 1892.69,717.015 1902.89,739.183C2028.71,1012.48 1498.28,1123.16 1487.39,1112.17C1448.63,1073.04 1445.93,1025.53 1528.35,960.794C1620.8,888.179 1664.35,876.334 1758.95,837.297Z" style="fill:rgb(41,29,43);"/>
        </g>
        <g transform="matrix(0.343433,0,0,0.343433,131.557,-140.135)">
            <path d="M1605.56,1298.34C1665.22,1359.75 1762.44,1408.71 1749.66,1512.09C1744.61,1552.9 1732.16,1619.76 1732.48,1619.79C1804.01,1625.72 1823.79,1532.4 1820.12,1525.22C1798.06,1481.93 1794.81,1404.31 1793.34,1354.84C1790.79,1268.9 1678.24,1274.52 1691.39,1190.6" style="fill:rgb(41,29,43);"/>
        </g>
    </g>
    <g transform="matrix(14.1706,0,0,14.1706,-2917.18,-7652.88)">
        <g transform="matrix(16.6667,0,0,16.6667,265.084,583.333)">
        </g>
        <text x="216.964px" y="583.333px" style="font-family:'InterTight-Black', 'Inter Tight';font-weight:900;font-size:16.667px;">T<tspan x="226.478px " y="583.333px ">A</tspan>PIR</text>
    </g>
    <g transform="matrix(11.2648,0,0,11.2648,-2284.91,-5789.97)">
        <g transform="matrix(16.6667,0,0,16.6667,277.169,583.333)">
        </g>
        <text x="216.964px" y="583.333px" style="font-family:'InterTight-Black', 'Inter Tight';font-weight:900;font-size:16.667px;fill:white;">MAKES</text>
    </g>
    <g transform="matrix(11.2648,0,0,11.2648,-2287.94,-5620.41)">
        <g transform="matrix(16.6667,0,0,16.6667,277.755,583.333)">
        </g>
        <text x="216.964px" y="583.333px" style="font-family:'InterTight-Black', 'Inter Tight';font-weight:900;font-size:16.667px;">G<tspan x="229.074px " y="583.333px ">A</tspan>MES</text>
    </g>
</svg>
