<?xml version="1.0" encoding="UTF-8" standalone="no"?>
<!DOCTYPE svg PUBLIC "-//W3C//DTD SVG 1.1//EN" "http://www.w3.org/Graphics/SVG/1.1/DTD/svg11.dtd">
<svg width="100%" height="100%" viewBox="0 0 96 29" version="1.1" xmlns="http://www.w3.org/2000/svg" xmlns:xlink="http://www.w3.org/1999/xlink" xml:space="preserve" xmlns:serif="http://www.serif.com/" style="fill-rule:evenodd;clip-rule:evenodd;stroke-linejoin:round;stroke-miterlimit:2;">
    <g transform="matrix(1,0,0,1,94.307,18.855)">
        <path d="M0,-8.554L-0.258,-8.554L-0.264,-9.024L0,-9.024C0.202,-9.024 0.274,-8.936 0.274,-8.799C0.274,-8.764 0.267,-8.73 0.252,-8.698C0.238,-8.667 0.217,-8.639 0.191,-8.616C0.165,-8.593 0.135,-8.575 0.102,-8.565C0.069,-8.554 0.034,-8.55 0,-8.554M0.542,-8.822C0.542,-9.044 0.411,-9.253 0.023,-9.253L-0.509,-9.256L-0.509,-7.757L-0.271,-7.757L-0.271,-8.339L0.033,-8.339L0.326,-7.757L0.624,-7.757L0.274,-8.41C0.354,-8.445 0.422,-8.503 0.47,-8.576C0.517,-8.649 0.542,-8.735 0.542,-8.822M-1.036,-7.786C-1.176,-7.99 -1.251,-8.232 -1.254,-8.479C-1.261,-8.646 -1.234,-8.813 -1.173,-8.969C-1.113,-9.125 -1.021,-9.267 -0.904,-9.386C-0.786,-9.505 -0.645,-9.598 -0.489,-9.66C-0.334,-9.722 -0.167,-9.751 0,-9.746C0.247,-9.746 0.489,-9.672 0.695,-9.535C0.901,-9.398 1.062,-9.203 1.157,-8.975C1.252,-8.746 1.278,-8.495 1.231,-8.252C1.183,-8.009 1.065,-7.786 0.891,-7.61C0.717,-7.434 0.495,-7.314 0.252,-7.264C0.01,-7.214 -0.242,-7.237 -0.471,-7.33C-0.7,-7.423 -0.897,-7.582 -1.036,-7.786M1.249,-7.641C1.415,-7.889 1.504,-8.181 1.505,-8.479C1.511,-8.679 1.477,-8.877 1.404,-9.063C1.33,-9.249 1.22,-9.418 1.079,-9.559C0.938,-9.701 0.769,-9.812 0.584,-9.886C0.398,-9.961 0.2,-9.996 0,-9.991C-0.298,-9.991 -0.59,-9.903 -0.839,-9.738C-1.087,-9.573 -1.281,-9.338 -1.395,-9.062C-1.51,-8.787 -1.541,-8.484 -1.483,-8.191C-1.426,-7.898 -1.283,-7.629 -1.072,-7.418C-0.862,-7.206 -0.593,-7.062 -0.301,-7.003C-0.008,-6.945 0.295,-6.974 0.571,-7.087C0.847,-7.201 1.083,-7.394 1.249,-7.641M-5.08,-5.645L-8.058,0.712L-9.344,0.712L-12.283,-5.589L-12.283,1.029L-14.467,1.029L-14.467,-9.853L-12.289,-9.853L-8.632,-2.001L-5.097,-9.853L-2.899,-9.853L-2.899,1.025L-5.08,1.025L-5.08,-5.645ZM-23.615,-2.899L-22.13,-7.255L-20.611,-2.899L-23.615,-2.899ZM-24.954,1.029L-24.235,-1.084L-19.988,-1.087L-19.25,1.025L-16.782,1.025L-20.977,-9.853L-23.262,-9.853L-27.344,1.029L-24.954,1.029ZM-34.379,-7.894L-34.379,-5.443L-30.018,-5.443L-30.018,-3.484L-34.379,-3.484L-34.379,-0.93L-29.319,-0.93L-29.319,1.029L-36.658,1.029L-36.658,-9.853L-29.319,-9.853L-29.319,-7.894L-34.379,-7.894ZM-42.48,1.032L-42.48,-7.894L-39.179,-7.894L-39.179,-9.853L-48.066,-9.853L-48.066,-7.894L-44.765,-7.894L-44.765,1.032L-42.48,1.032ZM-50.045,-8.972L-51.024,-7.271C-51.804,-7.798 -52.721,-8.087 -53.662,-8.103C-54.671,-8.103 -55.295,-7.689 -55.295,-6.941C-55.295,-6.173 -54.501,-5.903 -53.257,-5.479C-53.032,-5.403 -52.792,-5.321 -52.539,-5.23C-50.769,-4.603 -49.754,-3.869 -49.754,-2.246C-49.754,-0.029 -51.497,1.215 -53.998,1.215C-55.339,1.219 -56.659,0.874 -57.825,0.212L-57.12,-1.675C-56.193,-1.185 -55.164,-0.92 -54.116,-0.901C-52.794,-0.901 -52.157,-1.387 -52.157,-2.109C-52.157,-2.874 -52.978,-3.144 -54.33,-3.587L-54.332,-3.587C-54.438,-3.622 -54.548,-3.658 -54.661,-3.696C-56.427,-4.283 -57.648,-5.057 -57.648,-6.853C-57.648,-8.874 -56.016,-10.036 -53.698,-10.036C-52.399,-10.073 -51.121,-9.701 -50.045,-8.972M-77.392,-9.647C-77.692,-9.199 -77.852,-8.672 -77.852,-8.133L-77.868,-8.139C-77.869,-7.779 -77.799,-7.423 -77.661,-7.09C-77.523,-6.758 -77.321,-6.456 -77.066,-6.202C-76.811,-5.948 -76.508,-5.747 -76.175,-5.61C-75.842,-5.474 -75.486,-5.404 -75.126,-5.407C-74.586,-5.407 -74.059,-5.567 -73.611,-5.866C-73.163,-6.166 -72.813,-6.591 -72.607,-7.09C-72.401,-7.588 -72.347,-8.136 -72.452,-8.665C-72.557,-9.193 -72.817,-9.679 -73.198,-10.061C-73.579,-10.442 -74.065,-10.701 -74.594,-10.807C-75.123,-10.912 -75.671,-10.858 -76.169,-10.652C-76.667,-10.445 -77.093,-10.096 -77.392,-9.647M-72.112,-10.151C-71.713,-9.554 -71.501,-8.851 -71.502,-8.133C-71.503,-7.171 -71.886,-6.25 -72.566,-5.57C-73.246,-4.89 -74.167,-4.507 -75.129,-4.506C-75.847,-4.505 -76.55,-4.717 -77.147,-5.116C-77.745,-5.515 -78.211,-6.082 -78.486,-6.745C-78.761,-7.409 -78.833,-8.139 -78.693,-8.844C-78.553,-9.548 -78.207,-10.195 -77.699,-10.703C-77.191,-11.211 -76.544,-11.557 -75.84,-11.697C-75.135,-11.837 -74.405,-11.765 -73.741,-11.49C-73.078,-11.214 -72.511,-10.749 -72.112,-10.151M-85.253,3.063L-87.03,2.328C-86.772,2.864 -86.364,3.314 -85.855,3.623C-85.346,3.931 -84.759,4.085 -84.164,4.065C-83.569,4.045 -82.993,3.853 -82.506,3.511C-82.019,3.17 -81.641,2.694 -81.42,2.141C-81.199,1.589 -81.143,0.984 -81.259,0.401C-81.376,-0.183 -81.66,-0.72 -82.076,-1.145C-82.492,-1.57 -83.024,-1.864 -83.605,-1.993C-84.186,-2.121 -84.791,-2.077 -85.348,-1.867L-83.516,-1.11C-82.963,-0.88 -82.524,-0.439 -82.296,0.115C-82.067,0.669 -82.068,1.291 -82.299,1.845C-82.529,2.398 -82.97,2.837 -83.524,3.066C-84.078,3.294 -84.7,3.293 -85.253,3.063M-79.912,-18.855C-83.542,-18.854 -87.038,-17.487 -89.706,-15.025C-92.373,-12.564 -94.016,-9.188 -94.307,-5.57L-86.566,-2.367C-85.889,-2.832 -85.086,-3.08 -84.264,-3.079L-84.036,-3.079L-80.594,-8.067L-80.594,-8.139C-80.591,-9.216 -80.268,-10.268 -79.667,-11.161C-79.065,-12.055 -78.213,-12.75 -77.217,-13.16C-76.221,-13.569 -75.126,-13.674 -74.07,-13.462C-73.014,-13.249 -72.045,-12.729 -71.285,-11.966C-70.525,-11.203 -70.008,-10.232 -69.799,-9.176C-69.591,-8.119 -69.7,-7.025 -70.113,-6.03C-70.526,-5.035 -71.224,-4.186 -72.12,-3.588C-73.016,-2.99 -74.068,-2.671 -75.145,-2.671L-75.269,-2.671L-80.167,0.833L-80.167,1.025C-80.164,2.041 -80.54,3.021 -81.221,3.775C-81.901,4.529 -82.839,5.002 -83.849,5.103C-84.86,5.203 -85.872,4.924 -86.688,4.32C-87.504,3.715 -88.066,2.828 -88.264,1.832L-93.798,-0.454C-93.065,2.132 -91.626,4.462 -89.642,6.274C-87.658,8.086 -85.207,9.309 -82.566,9.805C-79.925,10.301 -77.198,10.05 -74.692,9.081C-72.185,8.112 -69.999,6.463 -68.379,4.319C-66.758,2.175 -65.768,-0.378 -65.519,-3.053C-65.27,-5.729 -65.772,-8.421 -66.97,-10.827C-68.167,-13.233 -70.012,-15.257 -72.296,-16.671C-74.581,-18.086 -77.215,-18.835 -79.902,-18.835L-79.912,-18.855Z" style="fill:white;"/>
    </g>
</svg>
